<svg width="20" height="19" viewBox="0 0 20 19" fill="none" xmlns="http://www.w3.org/2000/svg">
<path d="M6.24307 4.82757L14.7291 13.3136L11.2641 16.7776H17.7791C18.0443 16.7776 18.2986 16.8829 18.4862 17.0705C18.6737 17.258 18.7791 17.5124 18.7791 17.7776C18.7791 18.0428 18.6737 18.2971 18.4862 18.4847C18.2986 18.6722 18.0443 18.7776 17.7791 18.7776H6.67207C6.27438 18.7772 5.89311 18.619 5.61207 18.3376L0.586073 13.3136C0.40027 13.1278 0.252879 12.9073 0.152318 12.6646C0.0517584 12.4219 0 12.1618 0 11.8991C0 11.6364 0.0517584 11.3762 0.152318 11.1335C0.252879 10.8908 0.40027 10.6703 0.586073 10.4846L6.24307 4.82757ZM13.3141 0.585573L18.9711 6.24157C19.1569 6.4273 19.3043 6.64781 19.4048 6.89052C19.5054 7.13322 19.5571 7.39336 19.5571 7.65607C19.5571 7.91878 19.5054 8.17892 19.4048 8.42163C19.3043 8.66433 19.1569 8.88484 18.9711 9.07057L16.1431 11.8986L7.65807 3.41357L10.4861 0.585573C10.8611 0.210631 11.3697 0 11.9001 0C12.4304 0 12.939 0.210631 13.3141 0.585573Z" fill="white"/>
</svg>
