<svg width="18" height="13" viewBox="0 0 18 13" fill="none" xmlns="http://www.w3.org/2000/svg">
<path d="M13.9091 5.6875H12.2727C12.0409 5.6875 11.8467 5.6095 11.6902 5.4535C11.5336 5.2975 11.4551 5.10467 11.4545 4.875C11.454 4.64533 11.5325 4.4525 11.6902 4.2965C11.8478 4.1405 12.042 4.0625 12.2727 4.0625H13.9091V2.4375C13.9091 2.20729 13.9876 2.01446 14.1447 1.859C14.3018 1.70354 14.496 1.62554 14.7273 1.625C14.9585 1.62446 15.153 1.70246 15.3106 1.859C15.4683 2.01554 15.5465 2.20837 15.5455 2.4375V4.0625H17.1818C17.4136 4.0625 17.6081 4.1405 17.7652 4.2965C17.9223 4.4525 18.0005 4.64533 18 4.875C17.9995 5.10467 17.9209 5.29777 17.7644 5.45431C17.6078 5.61085 17.4136 5.68858 17.1818 5.6875H15.5455V7.3125C15.5455 7.54271 15.4669 7.73581 15.3098 7.89181C15.1527 8.04781 14.9585 8.12554 14.7273 8.125C14.496 8.12446 14.3018 8.04646 14.1447 7.891C13.9876 7.73554 13.9091 7.54271 13.9091 7.3125V5.6875ZM6.54545 6.5C5.64545 6.5 4.875 6.18177 4.23409 5.54531C3.59318 4.90885 3.27273 4.14375 3.27273 3.25C3.27273 2.35625 3.59318 1.59115 4.23409 0.954688C4.875 0.318229 5.64545 0 6.54545 0C7.44545 0 8.21591 0.318229 8.85682 0.954688C9.49773 1.59115 9.81818 2.35625 9.81818 3.25C9.81818 4.14375 9.49773 4.90885 8.85682 5.54531C8.21591 6.18177 7.44545 6.5 6.54545 6.5ZM0 11.375V10.725C0 10.2646 0.119455 9.84154 0.358364 9.45587C0.597273 9.07021 0.914182 8.77554 1.30909 8.57187C2.15455 8.15208 3.01364 7.83737 3.88636 7.62775C4.75909 7.41812 5.64545 7.31304 6.54545 7.3125C7.44545 7.31196 8.33182 7.41704 9.20454 7.62775C10.0773 7.83846 10.9364 8.15317 11.7818 8.57187C12.1773 8.775 12.4945 9.06966 12.7334 9.45587C12.9723 9.84208 13.0915 10.2651 13.0909 10.725V11.375C13.0909 11.8219 12.9308 12.2046 12.6106 12.5231C12.2905 12.8416 11.9051 13.0005 11.4545 13H1.63636C1.18636 13 0.801273 12.841 0.481091 12.5231C0.160909 12.2051 0.000545454 11.8224 0 11.375Z" fill="white"/>
</svg>
