<svg width="12" height="17" viewBox="0 0 12 17" fill="none" xmlns="http://www.w3.org/2000/svg">
<path d="M0.3325 5.6525H5.32C5.50374 5.6525 5.65231 5.50374 5.65231 5.32V0.3325C5.65231 0.244349 5.6173 0.159805 5.55499 0.0974549C5.49267 0.0351046 5.40815 5.09544e-05 5.32 0H4.9875L5.55535e-08 4.9875V5.31981C-2.51934e-05 5.36349 0.0085565 5.40675 0.0252549 5.44711C0.0419533 5.48747 0.0664411 5.52415 0.097319 5.55505C0.128197 5.58594 0.16486 5.61045 0.205213 5.62717C0.245567 5.64389 0.288819 5.6525 0.3325 5.6525Z" fill="white"/>
<path d="M11.305 0H7.89851C7.7436 0 7.61483 0.106285 7.57773 0.249471H7.56601V7.27445H7.56562L7.56601 7.27887C7.56601 7.36705 7.53098 7.45162 7.46862 7.51398C7.40626 7.57633 7.32169 7.61137 7.23351 7.61137L7.23178 7.61117L0.3325 7.61137C0.164712 7.61137 0.0276763 7.73572 0.00461275 7.89716H0V16.2925C0 16.4762 0.14876 16.625 0.3325 16.625H11.305C11.3932 16.625 11.4778 16.59 11.5401 16.5276C11.6025 16.4653 11.6375 16.3807 11.6375 16.2925V0.3325C11.6375 0.244315 11.6025 0.159743 11.5401 0.097387C11.4778 0.0350311 11.3932 0 11.305 0Z" fill="white"/>
</svg>
